PathFileType	4	(X/Y/Z)	Patient4_TMGait_0pt4_03_right_23.trc.trc
DataRate	CameraRate	NumFrames	NumMarkers	Units	OrigDataRate	OrigDataStartFrame	OrigNumFrames
72.164948453608	72.164948453608	6	33	mm	72.164948453608	53	       141
Frame#	Time	Sacral			L.Shoulder			Chest			R.Shoulder			Neck			R.ASIS			L.ASIS			R.Thigh.Superior			R.Thigh.Lateral			R.Thigh.Inferior			R.Patella			L.Thigh.Superior			L.Thigh.Lateral			L.Thigh.Inferior			L.Patella			L.Shank.Superior			L.Shank.Lateral			L.Shank.Inferior			R.Shank.Superior			R.Shank.Lateral			R.Shank.Inferior			R.Heel			R.Midfoot.Superior			R.Midfoot.Lateral			R.Toe			L.Heel			L.Midfoot.Lateral			L.Midfoot.Superior			L.Toe			L.Elbow			L.Wrist			R.Elbow			R.Wrist			
		X1	Y1	Z1	X2	Y2	Z2	X3	Y3	Z3	X4	Y4	Z4	X5	Y5	Z5	X6	Y6	Z6	X7	Y7	Z7	X8	Y8	Z8	X9	Y9	Z9	X10	Y10	Z10	X11	Y11	Z11	X12	Y12	Z12	X13	Y13	Z13	X14	Y14	Z14	X15	Y15	Z15	X16	Y16	Z16	X17	Y17	Z17	X18	Y18	Z18	X19	Y19	Z19	X20	Y20	Z20	X21	Y21	Z21	X22	Y22	Z22	X23	Y23	Z23	X24	Y24	Z24	X25	Y25	Z25	X26	Y26	Z26	X27	Y27	Z27	X28	Y28	Z28	X29	Y29	Z29	X30	Y30	Z30	X31	Y31	Z31	X32	Y32	Z32	X33	Y33	Z33	

53	30.160571428571	852.802333099393	1008.175495097115	532.967712339905	1014.964237045750	1437.195627797614	339.270179825295	1134.443420495639	1368.535478428475	488.451632406688	1070.239146822511	1439.910052488462	671.476787580987	1011.910126218909	1497.814951694899	496.282839376551	1091.768510149504	940.882615777387	625.988546227508	1050.611276263943	969.224424487999	356.026789792066	1124.676687425153	737.966976435488	589.533245971652	1043.435024172226	629.282194103431	651.406916086977	1114.455434598478	576.947852086100	566.086072137121	1111.692608933047	486.754272518103	570.821619377143	1141.291753524970	792.323615255348	372.354373221345	1097.459533158851	667.977646818741	288.632648458474	1208.995980725595	610.291889158908	338.515733211881	1226.797901195291	523.806331181819	325.270618336083	1166.710580367560	452.313557600989	319.523942580765	1027.147520398571	394.725123913234	283.361942208180	1037.931461616439	261.558165081891	328.678851885441	1074.917205528003	400.024046311114	577.300726396128	997.223365336263	301.547568836982	638.629399161981	1028.134996945796	204.473275188455	572.500117224565	881.894923382866	46.127566601697	542.198438862133	1053.139857044721	96.699961285374	580.673462172613	964.517408806208	38.285795931147	617.912713720875	1172.852516983665	40.377611580562	610.261446535343	863.916080413376	178.904158645504	383.963452015868	913.191263860281	138.928355854594	295.684891519486	1019.505043335746	152.669635169494	304.839396869283	1098.242356500238	45.394722380941	262.939295452503	939.593255318903	1095.191378634203	218.603810872028	993.109741419906	839.723346582540	182.642073616336	1101.923078618889	1113.967426287359	826.983866535388	1341.245070067381	1050.897461575450	770.205596348063	
54	30.174428571429	851.184965346479	1008.778437396669	535.259719448930	1012.282421902942	1437.498849473047	340.508832646017	1132.870052677306	1368.735634910909	488.752572300380	1070.286644047425	1440.382026000533	672.243073381932	1010.499986619389	1498.079321976126	497.492944929856	1090.342757191036	940.869685620570	626.421606482902	1047.512851452894	970.042099450988	356.769378850109	1121.626981074387	737.590504358147	589.510786100250	1040.122880705563	629.292856659217	651.935034503418	1110.256759215197	576.597967173928	566.275737583587	1107.004682164012	486.512777867969	571.110189680911	1138.785874449320	794.173141918309	372.999027585538	1095.638017000844	669.654034397559	289.084343758183	1207.392190668387	612.663125779104	338.837657729624	1226.349568976239	527.321785743971	325.290224504643	1169.276286251431	454.796185384233	319.143006509853	1033.016545922308	390.511749229259	282.875131164168	1051.041037420908	257.793628991981	327.115291460716	1069.985305260250	399.887845118939	577.648880990654	992.124455413881	301.528409341962	638.931394253625	1022.828780162280	204.460729719803	572.731604968800	876.343539857825	46.233264081704	542.298291277948	1047.635229241040	96.697498422649	580.767810142706	958.948624749488	38.301423678640	617.970143048819	1167.255683221867	40.315632633851	610.360164355079	882.397685381203	164.121100766133	382.187729088795	933.610196558260	128.845153769664	293.188785411259	1038.636449157998	149.251409538207	302.280132254210	1123.850539428187	48.448913529843	258.615110371973	935.472041898895	1095.413704449724	220.983647947908	985.001111602359	839.203032138715	185.033263204456	1107.478025010564	1114.680329969529	826.743626183890	1347.755751999951	1060.410412058776	766.297664884865	
55	30.188285714286	849.452583695921	1009.322833166212	537.366671601445	1009.673200855660	1437.704852832382	341.612276571048	1131.311074676106	1368.786475636760	488.936218842925	1070.329368012691	1440.714829768346	672.870684907780	1009.133337493624	1498.236875829654	498.592810959600	1088.789412499510	940.743880682564	626.723791156026	1044.380193671407	970.737164092084	357.354545248003	1118.448270999802	737.144828072040	589.358984563831	1036.698383376885	629.243371239650	652.377066748861	1105.902355276926	576.203853712795	566.368415242274	1102.141345285106	486.259295573729	571.304140944320	1135.851425771713	795.436866494595	373.456541591583	1093.013961507761	670.777496055884	289.520090988174	1204.758991362213	614.213978072804	339.299000848911	1224.796797609260	530.279396407245	325.542888179132	1171.082336774734	456.890787617934	318.882949575924	1038.989484572767	385.453804746294	281.978248097882	1064.709265880274	253.643124808499	325.293928377765	1064.936048474080	399.706531714975	577.921648407216	986.953406866986	301.439068669873	639.185788345115	1017.459804220477	204.401116541441	572.916821289970	870.778133245430	46.246847303406	542.406775730695	1042.100203762607	96.672998239815	580.820642720554	953.358701693678	38.282107489063	618.028126466892	1161.645863425509	40.282226200708	610.436044951429	902.381030949448	148.489787231531	379.502556630665	955.699201020276	118.298054610232	290.033454621034	1058.904538234268	145.681239651084	299.492716635699	1150.776151419801	52.122394724706	254.478564299379	931.356060232413	1095.604017733745	223.095163138966	977.663258409657	838.844245320059	187.203091110382	1112.953118076024	1115.208939402868	826.099658967382	1353.799534907063	1069.447647543802	762.105457341906	
56	30.202142857143	847.613002044887	1009.783955541024	539.272204537093	1007.132224943782	1437.796577578921	342.572079596940	1129.757727333202	1368.680327935267	489.003386640645	1070.337768739302	1440.890344858426	673.357509768711	1007.782549059416	1498.279618542897	499.550202377117	1087.129936723483	940.492965418341	626.903178637079	1041.248038640601	971.285170885194	357.785989192277	1115.174133378378	736.614977961935	589.101741186219	1033.175807509224	629.118323734455	652.736068382391	1101.417449593522	575.750666099283	566.375062068031	1097.119884599628	485.981741405095	571.404015705090	1132.511477106272	796.081289521683	373.762994994041	1089.646195828712	671.337059077375	289.931183664281	1201.149237827549	614.926484295633	339.944327027274	1222.219919247681	532.653966379036	326.084177712431	1172.141283522923	458.611648514380	318.801802136147	1045.079753836335	379.808356464668	280.660283300020	1078.702016741902	249.407620936691	323.299359179223	1059.789529625287	399.464243166159	578.116459334854	981.726033867462	301.265349296847	639.394121035518	1012.035510008049	204.277988523855	573.051028003896	865.193194028695	46.158562309528	542.520324877657	1036.527346874903	96.622008152312	580.827665347734	947.746531872370	38.225559680828	618.090524356986	1156.023116578570	40.285094024216	610.488104058040	923.546729197987	132.688060961934	375.931473852471	979.108454267255	107.833457650890	286.314321236291	1079.934274521372	142.296510454320	296.614260799997	1178.414056009588	56.559405315267	250.819885778681	927.242813042231	1095.740246203170	224.934871131111	971.102358886835	838.604141619101	189.098208568833	1118.332048245454	1115.544479270519	825.070316616355	1359.391713474163	1077.947016627636	757.654711148722	
57	30.216000000000	845.685577453607	1010.143635097640	540.962356416447	1004.653309162014	1437.766055032323	343.378242299262	1128.200792864765	1368.421366032112	488.952832549172	1070.282039946991	1440.903288922900	673.699697401361	1006.420702655117	1498.207334467222	500.335664611282	1085.389693600857	940.116872666875	626.965915694174	1038.153788663357	971.670756462883	358.067981623983	1111.835092242220	735.993099637178	588.766206268263	1029.568150797120	628.910752739919	653.018473542623	1096.825982709202	575.229317691872	566.309231804083	1091.960020159552	485.671917512142	571.416781331949	1128.803099327849	796.099837246100	373.958040786522	1085.620538152699	671.353700170830	290.297166926307	1196.651721714215	614.823394898818	340.790330844028	1218.727740595769	534.445579729561	326.939994595749	1172.480734907987	459.983656107961	318.936857494870	1051.250381224849	373.844798077265	278.950348753863	1092.732588051419	245.359294110877	321.237077789943	1054.564981092134	399.151854462886	578.235292193089	976.455823878198	301.001188709132	639.562284326523	1006.562577201933	204.081377435915	573.134329384717	859.584344684414	45.968291880371	542.635498167419	1030.911169470681	96.542766550765	580.788550351063	942.111773554622	38.133418475944	618.161299415438	1150.387529982684	40.329530133767	610.516536101366	945.455618426622	117.348075187283	371.591744829207	1003.370812119240	97.927861965769	282.197406829538	1101.281491653140	139.377485876537	293.803829879262	1206.121475013835	61.823414043852	247.917559939353	923.151011649689	1095.804218591310	226.501171717758	965.310379283319	838.441253746587	190.675665086304	1123.587852802656	1115.690482952277	823.673336598394	1364.542909351795	1085.857788858209	752.974038197709	
58	30.229857142857	843.699578981245	1010.390479355110	542.425129704447	1002.228760148262	1437.614808349394	344.020225518488	1126.630923097250	1368.025331060012	488.782107072289	1070.132950918517	1440.761013935167	673.892655318563	1005.024199525445	1498.026826912761	500.927053626827	1083.597724218667	939.628261273552	626.917352546035	1035.135729443287	971.887532088729	358.204779949958	1108.459844240847	735.280243077621	588.379599535675	1025.891107813044	628.622548028428	653.233171319290	1092.154134556009	574.637950120517	566.185484273243	1086.687428886113	485.324817472516	571.354358558891	1124.782275666956	795.516153287616	374.079311657053	1081.052054516955	670.876940168440	290.590952546880	1191.396993758872	613.967914784484	341.821250058589	1214.456558101355	535.675634774485	328.100543106632	1172.143694679631	461.035315610712	319.298408008947	1057.404519720367	367.823158282092	276.925868699677	1106.469915216119	241.715311512128	319.226106041534	1049.283650579370	398.767376496341	578.284291245515	971.156462894733	300.649833490397	639.700103679776	1001.048084720103	203.809713165609	573.171858229363	853.949523483212	45.686338828719	542.749826010351	1025.249802444324	96.436999009483	580.707831986143	936.455430095379	38.011224299916	618.243525105500	1144.739464618265	40.417114545404	610.522670322955	967.561120158135	103.015844003294	366.700005611648	1027.903566950040	88.952616847820	277.912798155942	1122.439730446216	137.114586466237	291.228822193194	1233.225855219172	67.862118427012	245.999438603478	919.118516966570	1095.783102999430	227.793200047359	960.270092085447	838.319127628087	191.904887304993	1128.682231232007	1115.661193501537	821.926430047484	1369.258419985154	1093.140458508261	748.094879449768	
